<?xml version="1.0" standalone="no"?>
<!DOCTYPE svg PUBLIC "-//W3C//DTD SVG 20010904//EN"
 "http://www.w3.org/TR/2001/REC-SVG-20010904/DTD/svg10.dtd">
<svg version="1.0" xmlns="http://www.w3.org/2000/svg"
 width="2250.000000pt" height="2250.000000pt" viewBox="0 0 2250.000000 2250.000000"
 preserveAspectRatio="xMidYMid meet">
<metadata>
Created by potrace 1.14, written by Peter Selinger 2001-2017
</metadata>
<g transform="translate(0.000000,2250.000000) scale(0.100000,-0.100000)"
fill="#000000" stroke="none">
<path d="M10449 21246 c-2 -2 -69 -7 -149 -11 -80 -3 -163 -8 -185 -9 -160
-13 -214 -17 -245 -21 -19 -2 -57 -7 -85 -9 -174 -19 -207 -23 -245 -30 -14
-3 -47 -8 -75 -11 -95 -11 -105 -12 -240 -36 -33 -6 -73 -13 -90 -15 -24 -4
-94 -18 -150 -30 -5 -1 -37 -7 -70 -13 -75 -14 -88 -17 -150 -31 -27 -6 -60
-14 -73 -16 -57 -11 -211 -50 -362 -90 -513 -139 -990 -311 -1490 -536 -164
-74 -487 -238 -675 -343 -344 -192 -756 -459 -1071 -696 -118 -88 -373 -289
-411 -323 -6 -6 -33 -29 -59 -51 -202 -168 -642 -590 -835 -800 -121 -133
-206 -230 -290 -330 -46 -55 -86 -102 -89 -105 -13 -11 -229 -291 -323 -419
-80 -110 -333 -483 -384 -566 -92 -153 -189 -316 -225 -380 -25 -44 -58 -102
-73 -130 -44 -78 -215 -418 -272 -540 -176 -378 -327 -772 -477 -1250 -21 -69
-120 -432 -141 -520 -9 -37 -8 -36 -39 -172 -25 -111 -75 -360 -80 -398 -2
-11 -6 -33 -9 -50 -3 -16 -9 -48 -12 -70 -3 -22 -10 -65 -15 -95 -5 -30 -16
-111 -25 -180 -9 -69 -18 -141 -20 -160 -2 -19 -7 -62 -10 -95 -3 -33 -8 -76
-10 -95 -10 -81 -19 -194 -32 -420 -15 -269 -8 -1017 12 -1200 2 -19 6 -71 10
-115 6 -83 10 -131 21 -225 3 -30 7 -66 9 -80 1 -14 5 -47 9 -75 4 -27 8 -63
10 -80 6 -43 17 -126 22 -155 33 -205 47 -286 59 -345 8 -38 16 -81 19 -95 3
-20 23 -115 41 -200 126 -593 373 -1327 640 -1905 74 -161 188 -391 207 -418
11 -15 17 -27 15 -27 -8 0 143 -272 246 -445 33 -55 65 -109 71 -120 56 -98
315 -484 441 -655 89 -122 375 -485 422 -535 10 -11 45 -52 78 -90 33 -39 64
-75 70 -81 206 -228 530 -556 690 -699 122 -109 195 -182 300 -300 96 -107
424 -438 540 -545 118 -109 181 -165 315 -279 41 -35 99 -84 129 -110 30 -25
64 -53 76 -61 11 -8 52 -40 91 -71 85 -68 239 -184 359 -270 196 -140 546
-369 565 -369 4 0 10 -3 12 -7 3 -8 106 -73 115 -73 3 0 17 -8 31 -18 15 -11
54 -34 87 -52 33 -18 119 -65 190 -104 611 -336 1338 -626 2045 -817 219 -59
547 -135 665 -154 17 -3 41 -8 55 -10 14 -3 36 -8 50 -10 35 -7 151 -27 177
-30 12 -2 34 -6 50 -9 33 -7 67 -12 143 -21 30 -4 64 -9 74 -11 11 -2 44 -6
74 -9 30 -3 67 -7 81 -9 14 -2 58 -7 96 -11 39 -4 77 -8 85 -10 8 -2 58 -6
110 -10 52 -3 111 -8 130 -10 154 -14 348 -20 740 -20 464 0 578 4 880 30 36
3 90 8 120 11 30 2 71 7 90 9 19 3 62 8 95 11 33 3 67 7 75 9 8 1 40 6 70 10
30 3 66 8 80 10 14 3 59 9 100 15 41 5 98 14 125 20 28 5 64 11 80 14 17 2 91
16 165 31 74 15 146 29 160 32 36 6 182 40 295 68 55 14 109 27 120 29 45 10
388 110 505 148 168 54 533 186 605 217 11 5 108 46 215 91 353 149 788 371
1125 573 297 179 663 426 845 570 9 7 54 41 100 77 47 35 114 88 150 118 36
29 74 61 85 70 270 215 702 628 980 937 50 55 92 102 95 105 3 3 28 32 55 65
28 33 55 65 61 70 39 35 250 307 512 660 41 56 216 321 306 465 85 137 216
358 216 365 0 2 14 28 31 56 17 29 77 143 134 253 168 327 321 675 443 1006
144 391 199 571 316 1020 23 91 88 387 101 460 3 19 12 67 20 105 13 66 40
226 51 305 2 19 7 51 10 70 6 36 10 61 19 145 4 28 8 61 10 75 3 23 13 121 20
195 2 17 6 71 10 120 4 50 9 97 10 106 26 139 26 1260 0 1494 -2 22 -7 78 -10
125 -3 47 -8 101 -10 120 -2 19 -7 60 -10 90 -3 30 -8 71 -10 90 -2 19 -7 55
-10 80 -10 88 -42 307 -50 350 -3 13 -7 42 -11 65 -3 22 -18 105 -34 185 -16
80 -31 156 -34 170 -2 14 -10 48 -16 75 -6 28 -14 61 -16 75 -10 50 -66 277
-86 344 -11 38 -22 78 -24 90 -10 53 -143 475 -200 636 -267 749 -624 1457
-1069 2121 -146 218 -472 661 -515 699 -3 3 -25 30 -50 60 -40 50 -121 145
-217 255 -169 193 -516 546 -708 720 -136 123 -173 160 -305 305 -286 315
-699 703 -1030 969 -63 51 -123 99 -132 106 -37 31 -256 195 -303 228 -440
312 -825 545 -1270 771 -174 89 -292 145 -515 244 -199 88 -556 223 -820 310
-175 58 -572 173 -649 188 -7 1 -50 12 -95 23 -117 28 -207 49 -241 55 -16 3
-41 8 -55 11 -14 3 -47 10 -75 15 -27 5 -113 21 -190 35 -77 14 -158 28 -180
31 -22 2 -83 11 -135 19 -98 15 -150 21 -235 30 -27 3 -63 7 -80 10 -27 4
-111 12 -205 20 -19 2 -82 6 -140 10 -58 4 -127 9 -155 11 -57 6 -881 15 -886
10z m836 -230 c44 -3 121 -8 170 -11 155 -11 294 -23 335 -30 14 -2 52 -7 85
-10 117 -11 225 -25 380 -51 50 -8 104 -17 120 -20 120 -19 379 -69 406 -78 8
-3 28 -7 44 -10 45 -8 188 -41 295 -69 119 -31 390 -107 410 -114 8 -3 20 -7
25 -9 69 -18 446 -150 620 -217 312 -120 852 -371 1090 -507 155 -88 202 -115
220 -124 11 -6 82 -49 158 -96 76 -47 146 -90 155 -95 145 -86 772 -532 772
-550 0 -2 -39 19 -87 47 -49 27 -113 64 -143 80 -30 17 -91 50 -135 75 -78 43
-470 238 -570 283 -94 43 -350 152 -410 175 -92 35 -305 115 -350 131 -123 45
-461 153 -525 169 -8 2 -62 17 -120 34 -101 29 -444 114 -505 126 -38 7 -75
14 -100 19 -36 7 -179 36 -210 41 -16 3 -65 12 -107 20 -43 8 -113 19 -156 25
-43 6 -87 12 -98 14 -10 2 -44 7 -74 11 -30 3 -66 8 -80 10 -14 2 -50 6 -80
10 -30 3 -71 8 -90 10 -19 3 -57 7 -85 9 -77 7 -206 18 -245 21 -328 27 -1085
27 -1420 0 -25 -2 -81 -7 -125 -10 -80 -7 -114 -10 -190 -19 -22 -3 -67 -8
-100 -11 -33 -3 -71 -8 -85 -10 -14 -2 -45 -7 -70 -10 -45 -5 -111 -15 -140
-20 -8 -1 -35 -6 -60 -10 -38 -5 -270 -46 -335 -59 -11 -2 -36 -6 -55 -10 -19
-3 -44 -8 -55 -10 -11 -3 -65 -14 -120 -26 -352 -76 -857 -222 -1194 -346
-216 -80 -257 -95 -276 -104 -11 -5 -76 -32 -145 -61 -68 -28 -143 -59 -165
-69 -235 -107 -320 -147 -505 -242 -271 -139 -405 -214 -695 -391 -56 -35
-372 -243 -450 -297 -168 -117 -597 -446 -625 -479 -3 -3 -25 -22 -50 -42 -47
-38 -52 -43 -160 -137 -184 -162 -499 -468 -652 -633 -310 -334 -520 -589
-774 -939 -872 -1198 -1454 -2597 -1693 -4065 -14 -86 -14 -86 -45 -325 -28
-223 -31 -257 -51 -490 -28 -339 -28 -1082 0 -1410 1 -19 6 -75 9 -125 4 -49
9 -106 11 -125 2 -19 6 -62 10 -95 3 -33 8 -71 10 -85 2 -14 6 -46 10 -72 11
-100 15 -134 19 -153 4 -21 12 -74 21 -137 2 -21 12 -77 21 -125 8 -49 18
-101 20 -118 15 -88 77 -379 109 -510 62 -252 175 -651 195 -687 6 -10 10 -24
10 -31 0 -14 81 -249 131 -377 72 -189 131 -338 144 -365 8 -16 37 -84 66
-150 115 -269 418 -856 512 -994 68 -100 -2 -18 -121 142 -473 633 -829 1251
-1144 1987 -27 63 -51 120 -52 125 -2 6 -9 24 -15 40 -137 330 -360 1039 -415
1316 -2 13 -12 56 -20 94 -69 308 -138 726 -170 1030 -12 113 -16 153 -21 220
-3 39 -7 93 -10 122 -25 290 -25 1163 0 1323 2 14 7 63 10 109 7 97 12 157 20
221 3 25 7 65 10 90 12 105 16 136 20 155 2 11 7 43 10 70 7 52 60 378 70 430
59 298 126 581 195 823 42 145 128 419 145 462 7 19 35 94 60 165 50 139 152
396 191 483 13 29 36 80 50 115 14 34 77 166 139 292 99 203 139 280 250 480
22 40 116 200 188 320 74 124 365 551 477 700 116 155 296 383 320 405 3 3 45
52 95 110 49 58 110 128 136 155 25 28 70 76 100 109 143 155 469 474 624 611
38 33 73 65 79 70 6 6 56 48 111 93 129 108 131 110 190 157 28 22 52 42 55
45 40 44 803 580 825 580 2 0 35 19 72 43 38 23 77 48 88 54 11 7 36 22 55 33
19 11 42 25 50 30 58 39 366 202 575 305 465 229 895 399 1415 559 103 31 383
108 442 120 13 3 73 17 133 32 128 30 106 25 265 57 69 14 168 33 220 42 52 9
106 18 120 21 14 2 70 11 125 19 55 8 116 18 135 20 19 3 60 8 90 11 30 2 66
6 80 9 37 6 166 19 305 30 44 4 96 9 115 10 19 2 107 7 195 10 88 4 161 8 163
10 5 4 696 -3 777 -9z m830 -2000 c138 -8 200 -12 305 -22 36 -3 79 -7 95 -9
43 -3 155 -16 185 -20 14 -2 50 -6 80 -10 30 -3 66 -8 80 -10 14 -3 39 -7 55
-9 17 -3 75 -12 130 -22 55 -9 111 -18 125 -20 20 -2 193 -38 381 -79 43 -9
383 -98 444 -116 304 -90 813 -278 1049 -388 49 -23 90 -41 92 -41 7 0 351
-173 449 -225 104 -56 355 -202 435 -253 30 -19 82 -52 115 -73 240 -154 316
-213 457 -358 178 -183 272 -286 402 -441 39 -47 73 -87 76 -90 12 -11 191
-241 246 -315 32 -44 69 -94 81 -110 34 -45 296 -436 313 -467 8 -15 37 -65
65 -110 27 -46 54 -92 61 -103 6 -11 43 -77 82 -147 97 -172 265 -517 351
-720 39 -92 71 -170 71 -173 0 -4 7 -21 15 -38 28 -62 95 -242 95 -257 0 -9 4
-20 9 -25 26 -29 216 -680 255 -875 3 -14 7 -34 10 -45 9 -37 64 -310 70 -350
4 -22 9 -51 11 -65 32 -188 64 -440 80 -632 4 -42 8 -89 10 -105 17 -142 24
-717 12 -983 -7 -147 -10 -189 -22 -320 -12 -142 -16 -177 -20 -205 -2 -16 -7
-56 -10 -88 -4 -32 -8 -66 -10 -75 -2 -10 -6 -45 -10 -77 -4 -33 -9 -69 -11
-80 -3 -11 -13 -72 -24 -136 -25 -154 -75 -400 -107 -524 -14 -55 -27 -110
-29 -121 -10 -55 -109 -388 -163 -549 -81 -244 -181 -506 -255 -670 -13 -27
-40 -88 -61 -135 -121 -269 -342 -675 -515 -951 -221 -351 -527 -761 -765
-1025 -5 -6 -55 -61 -110 -123 -248 -277 -750 -742 -1000 -926 -22 -17 -42
-32 -45 -35 -3 -4 -23 -19 -45 -35 -22 -17 -42 -32 -45 -35 -20 -22 -542 -380
-554 -380 -3 0 -31 -17 -63 -38 -32 -21 -65 -42 -73 -45 -8 -4 -31 -17 -50
-29 -240 -148 -656 -357 -994 -500 -340 -143 -860 -316 -1154 -383 -9 -2 -75
-18 -147 -35 -71 -17 -143 -33 -160 -36 -16 -3 -73 -14 -125 -24 -52 -11 -108
-22 -125 -24 -16 -3 -70 -12 -120 -20 -49 -8 -112 -17 -140 -21 -27 -3 -61 -8
-75 -10 -73 -11 -235 -29 -370 -40 -41 -3 -93 -8 -115 -10 -264 -29 -931 -24
-1290 10 -33 3 -84 8 -114 10 -47 4 -205 23 -336 41 -22 3 -80 12 -130 20 -49
8 -103 17 -120 20 -61 10 -241 45 -285 55 -25 6 -52 12 -60 14 -210 44 -704
181 -858 240 -20 7 -95 35 -167 60 -71 26 -149 56 -172 66 -23 11 -45 19 -49
19 -19 0 -368 156 -559 251 -233 115 -324 163 -473 250 -51 30 -100 59 -110
64 -80 44 -348 218 -473 307 -85 60 -165 116 -179 126 -94 63 -460 359 -584
472 -212 191 -431 405 -466 455 -106 154 -200 295 -200 300 0 3 -5 11 -10 18
-92 110 -424 723 -575 1063 -208 467 -404 1048 -500 1484 -29 130 -67 313 -71
340 -3 19 -11 67 -19 105 -8 39 -19 108 -25 155 -6 46 -13 87 -15 90 -1 3 -6
34 -10 70 -3 36 -8 76 -10 90 -1 14 -6 54 -10 90 -4 36 -9 72 -10 81 -2 9 -6
59 -10 110 -4 52 -8 110 -10 129 -24 257 -24 792 0 1090 12 142 16 188 20 225
2 22 7 67 10 100 9 81 14 123 20 165 3 19 8 53 10 74 3 22 7 51 9 65 3 14 8
46 11 71 4 25 9 54 11 65 3 11 6 35 9 54 2 18 7 41 9 50 3 9 7 32 10 51 9 63
47 243 72 350 14 58 27 112 29 120 2 8 8 35 15 60 7 25 13 52 15 61 2 8 24 89
50 180 252 885 655 1728 1194 2494 78 112 271 369 318 425 11 14 60 72 108
130 249 299 586 646 870 895 38 33 73 65 79 70 12 11 122 103 146 122 8 7 53
43 100 81 273 221 680 501 980 675 280 163 686 369 900 457 30 13 59 27 64 32
6 4 16 8 24 8 7 0 37 11 65 24 111 50 640 241 727 262 8 2 71 19 140 39 245
70 704 176 860 198 19 3 91 14 160 25 69 12 150 23 180 27 30 3 66 8 80 10 41
7 154 18 295 30 44 3 98 8 120 10 22 2 110 7 195 10 85 4 156 8 157 9 5 5 438
-2 558 -8z m5712 -2741 c221 -246 496 -600 683 -880 44 -66 84 -124 88 -130
13 -17 166 -266 208 -339 73 -127 80 -141 140 -251 308 -569 557 -1213 720
-1858 25 -98 47 -188 50 -200 2 -12 7 -35 11 -52 4 -16 7 -32 8 -35 0 -3 4
-21 8 -40 4 -19 9 -46 12 -60 3 -14 8 -41 11 -60 3 -19 10 -55 16 -80 5 -25
11 -56 13 -70 2 -14 11 -68 19 -120 8 -52 18 -115 21 -140 3 -25 8 -56 10 -70
2 -14 6 -50 10 -80 4 -30 8 -66 10 -80 2 -14 6 -56 10 -95 3 -38 8 -94 11
-124 16 -149 28 -434 28 -686 0 -215 -10 -539 -18 -605 -2 -14 -7 -65 -10
-115 -4 -49 -9 -103 -10 -120 -8 -75 -18 -171 -21 -186 -2 -8 -6 -40 -9 -70
-3 -30 -8 -65 -10 -79 -3 -14 -7 -41 -10 -60 -8 -52 -44 -271 -51 -305 -56
-285 -127 -582 -186 -780 -77 -254 -212 -646 -263 -760 -8 -16 -36 -84 -64
-150 -95 -227 -276 -597 -381 -779 -28 -49 -51 -90 -51 -92 0 -7 -175 -292
-248 -404 -106 -163 -364 -524 -392 -550 -3 -3 -39 -48 -80 -100 -301 -380
-708 -799 -1105 -1136 -344 -293 -812 -625 -1165 -827 -273 -156 -566 -308
-745 -386 -55 -24 -127 -56 -160 -71 -273 -123 -848 -324 -1105 -385 -8 -2
-96 -24 -195 -48 -153 -38 -238 -57 -260 -58 -2 0 -19 -4 -36 -9 -18 -5 -50
-12 -73 -16 -22 -3 -43 -7 -46 -9 -3 -2 -26 -6 -50 -10 -25 -3 -67 -10 -95
-15 -27 -5 -68 -12 -90 -15 -22 -3 -51 -7 -65 -10 -62 -9 -178 -26 -210 -29
-19 -2 -60 -7 -90 -10 -279 -33 -583 -50 -915 -50 -215 0 -461 8 -585 18 -25
2 -83 7 -130 10 -47 4 -101 9 -120 11 -19 2 -60 7 -90 10 -30 3 -71 8 -90 10
-19 3 -52 7 -74 10 -71 8 -120 16 -271 41 -82 14 -163 28 -180 31 -16 2 -61
11 -100 20 -38 8 -81 17 -95 19 -13 3 -63 14 -110 25 -47 11 -94 22 -104 24
-10 3 -55 14 -100 26 -45 11 -88 22 -96 24 -146 30 -901 285 -934 316 -6 5
-16 9 -23 9 -13 0 -76 27 -323 138 -279 126 -631 316 -904 486 -70 45 -142 89
-160 100 -42 25 -349 240 -407 285 -26 20 -59 45 -75 56 -35 25 -222 173 -249
196 -11 9 -56 48 -100 85 -195 165 -454 408 -389 363 443 -298 615 -404 929
-571 104 -56 368 -187 445 -221 19 -8 67 -30 105 -47 90 -41 467 -189 570
-225 44 -15 89 -31 100 -36 80 -34 622 -189 748 -215 10 -2 26 -5 35 -8 9 -3
29 -8 45 -11 24 -4 61 -12 92 -19 49 -11 74 -16 95 -20 28 -5 122 -24 160 -31
46 -9 121 -22 240 -40 14 -2 43 -6 65 -9 101 -16 336 -43 435 -51 41 -3 100
-8 130 -11 241 -19 785 -25 1040 -11 209 11 282 16 325 21 22 3 72 8 110 11
39 4 81 8 94 10 14 3 51 7 84 10 32 4 67 8 77 10 10 2 40 6 67 10 62 9 92 13
123 19 23 5 72 13 130 21 27 4 72 12 105 19 11 2 79 16 150 30 474 96 996 256
1470 449 251 103 663 301 873 421 35 20 66 36 69 36 2 0 28 15 56 33 29 18
104 64 167 102 784 468 1574 1161 2170 1905 19 24 40 48 45 54 6 6 56 72 112
146 327 436 608 893 831 1351 82 169 91 188 162 349 45 101 179 435 185 460 2
8 16 47 30 85 15 39 30 81 35 95 37 115 82 258 85 270 2 8 15 56 30 105 77
257 187 750 220 985 3 25 12 88 20 140 8 52 16 115 19 140 10 83 17 145 21
175 2 17 7 64 10 105 3 41 8 98 10 125 26 293 26 1006 1 1245 -2 19 -7 75 -11
124 -4 49 -8 98 -10 110 -2 11 -6 50 -9 86 -4 36 -8 75 -10 87 -3 12 -7 48
-11 80 -3 32 -8 65 -10 73 -2 8 -7 35 -10 60 -2 25 -10 72 -16 105 -5 33 -12
74 -14 90 -2 17 -8 50 -14 75 -5 25 -12 61 -16 80 -3 19 -8 46 -10 60 -3 14
-7 34 -9 45 -48 247 -149 614 -258 940 -184 551 -467 1167 -741 1615 -22 36
-48 79 -58 97 -10 18 -62 99 -116 180 -54 81 -100 152 -102 158 -2 5 -29 43
-59 85 l-54 75 89 -90 c48 -50 120 -126 160 -170z"/>
<path d="M11249 16305 c-3 -2 -34 -6 -69 -9 -36 -4 -83 -8 -105 -11 -22 -3
-58 -8 -80 -10 -22 -3 -51 -7 -65 -10 -14 -3 -38 -7 -55 -10 -16 -3 -39 -7
-50 -9 -11 -2 -56 -12 -100 -21 -309 -63 -709 -216 -960 -367 -16 -9 -46 -26
-65 -37 -69 -38 -250 -167 -346 -248 -102 -84 -256 -237 -335 -333 -213 -259
-362 -560 -428 -865 -28 -131 -31 -154 -38 -330 l-6 -159 29 19 c50 32 133 79
299 169 88 47 166 89 173 94 7 5 15 37 18 73 20 255 128 501 328 749 118 145
312 324 471 435 39 27 72 52 75 55 3 4 59 39 125 79 202 122 441 232 658 301
96 30 270 76 322 84 140 23 181 28 260 33 149 10 357 5 475 -12 19 -2 55 -7
80 -10 25 -3 54 -7 65 -9 11 -2 40 -7 65 -11 214 -34 594 -145 757 -220 17 -8
34 -15 37 -15 8 0 238 -114 296 -147 297 -168 561 -411 723 -665 101 -159 191
-402 212 -573 4 -27 9 -58 11 -68 7 -23 6 -295 -1 -327 -3 -14 -8 -41 -11 -60
-37 -236 -199 -579 -403 -854 -103 -140 -131 -203 -149 -341 -9 -70 -8 -225 3
-305 4 -30 9 -68 11 -85 12 -99 48 -259 89 -397 15 -51 12 -56 -20 -35 -11 8
-83 47 -160 87 -77 40 -158 83 -180 95 -22 12 -85 46 -140 75 -55 29 -122 65
-150 80 -27 15 -78 42 -112 60 l-61 33 -67 -17 c-36 -9 -110 -25 -163 -36 -89
-17 -130 -24 -209 -35 -63 -8 -216 -35 -218 -37 -2 -2 -17 -31 -34 -66 -58
-115 -154 -251 -224 -314 -37 -34 -39 -33 74 -24 153 13 349 51 561 109 l127
35 348 -149 c191 -82 357 -154 368 -159 34 -16 767 -330 771 -330 2 0 0 8 -5
18 -38 75 -86 207 -151 417 -8 26 -23 90 -36 150 -35 167 -49 417 -32 551 13
102 55 249 93 326 31 61 89 156 105 168 20 16 151 229 196 319 105 211 159
388 193 631 10 69 7 392 -3 450 -4 19 -11 58 -16 85 -96 525 -426 1008 -929
1361 -234 164 -508 301 -791 397 -73 25 -202 64 -244 74 -12 2 -37 9 -56 13
-73 19 -266 55 -340 65 -25 3 -64 8 -87 11 -24 4 -60 8 -80 11 -50 6 -639 14
-644 8z"/>
<path d="M9977 14244 c-1 -1 -54 -5 -117 -8 -63 -4 -126 -9 -140 -11 -14 -1
-49 -6 -79 -10 -30 -4 -61 -8 -70 -10 -175 -37 -233 -52 -334 -86 -519 -173
-926 -524 -1095 -943 -71 -174 -98 -335 -88 -516 7 -134 10 -160 31 -241 43
-164 101 -289 210 -449 92 -135 109 -168 137 -267 28 -101 30 -326 4 -443 -10
-41 -19 -82 -21 -90 -16 -77 -73 -247 -102 -302 -17 -34 -8 -35 59 -4 29 14
82 37 118 52 36 14 83 34 105 44 59 26 114 50 427 185 l283 121 60 -18 c74
-22 282 -65 350 -73 28 -3 66 -8 85 -11 59 -9 383 -11 466 -2 148 15 317 42
371 59 17 5 44 12 59 15 16 3 76 21 134 41 498 168 881 481 1067 873 43 90 87
219 97 285 4 22 11 68 16 102 24 149 -2 387 -62 558 -98 284 -330 569 -623
766 -91 61 -88 59 -205 121 -131 71 -386 165 -516 193 -10 2 -50 10 -89 18
-110 24 -173 32 -325 42 -91 7 -210 11 -213 9z"/>
<path d="M12263 10242 c-20 -2 -34 -10 -37 -20 -5 -17 -41 -187 -49 -232 -6
-31 -65 -312 -112 -535 -20 -93 -42 -201 -50 -240 -7 -38 -30 -146 -50 -240
-19 -93 -38 -181 -40 -195 -3 -14 -14 -68 -25 -120 -11 -52 -36 -169 -55 -260
-19 -91 -52 -253 -75 -360 -38 -182 -54 -258 -66 -320 -3 -14 -16 -77 -30
-140 -14 -63 -29 -135 -34 -160 -15 -78 -20 -103 -35 -175 -19 -86 -18 -82
-50 -240 -15 -71 -29 -139 -32 -150 -2 -11 -6 -31 -9 -45 -19 -96 -48 -201
-65 -237 -28 -57 -77 -98 -144 -119 l-55 -18 0 -93 0 -93 360 0 360 0 0 95 c0
87 -2 95 -19 95 -33 0 -106 36 -145 72 -30 27 -37 42 -40 77 -2 25 1 63 6 85
5 23 11 52 13 66 4 27 12 71 20 110 3 14 12 59 20 100 8 41 17 86 20 100 3 14
8 39 11 55 3 17 18 95 35 175 16 80 32 159 35 175 8 51 34 179 40 198 5 16 32
17 380 17 206 0 375 -3 375 -7 1 -5 3 -17 4 -28 2 -11 20 -105 40 -210 33
-172 43 -228 60 -320 3 -16 8 -46 12 -65 4 -19 8 -42 9 -50 1 -8 16 -91 34
-185 18 -93 33 -189 33 -211 3 -79 -42 -123 -149 -147 l-59 -14 0 -91 -1 -92
436 2 435 3 0 91 0 92 -50 11 c-115 27 -176 93 -213 228 -20 73 -73 306 -96
418 -2 11 -27 126 -56 255 -29 129 -54 246 -56 260 -3 14 -9 41 -14 60 -5 19
-19 80 -30 135 -12 55 -23 108 -26 118 -5 22 -13 57 -18 82 -2 11 -16 74 -31
140 -15 66 -28 129 -30 140 -3 11 -16 72 -31 135 -14 63 -28 126 -30 140 -3
14 -12 54 -20 90 -9 36 -18 76 -20 90 -2 14 -8 43 -14 65 -5 22 -17 74 -25
115 -9 41 -18 82 -20 90 -8 35 -37 167 -41 185 -2 11 -24 110 -48 220 -25 110
-47 211 -50 225 -8 44 -127 574 -131 590 -4 12 -26 15 -117 15 -62 0 -127 -1
-145 -3z m100 -702 c9 -47 19 -98 22 -115 3 -16 8 -46 12 -65 4 -19 8 -42 9
-50 2 -15 11 -62 53 -280 24 -125 59 -313 67 -355 3 -16 14 -75 24 -130 11
-55 21 -112 24 -128 3 -15 7 -35 10 -45 3 -9 7 -35 11 -57 3 -22 12 -74 20
-115 8 -41 23 -118 33 -170 10 -52 15 -97 11 -100 -11 -8 -647 -5 -655 2 -3 4
-2 27 4 50 6 24 14 66 18 93 3 28 8 53 10 56 2 4 6 24 9 45 4 22 8 46 10 54 2
8 7 29 9 45 3 17 21 113 40 215 19 102 38 199 40 215 3 17 8 41 11 55 9 46 92
488 101 540 3 14 9 48 14 75 24 121 60 307 61 313 2 8 11 -35 32 -148z"/>
<path d="M6369 10155 c-6 -46 -3 -163 4 -172 5 -7 23 -13 40 -13 59 0 148 -32
182 -65 63 -64 60 25 60 -1705 l0 -1575 -21 -46 c-34 -72 -114 -120 -228 -135
l-41 -6 1 -87 c1 -47 2 -89 3 -93 0 -5 393 -8 871 -8 l870 0 1 33 c1 40 1 42
24 477 3 47 7 141 10 210 3 69 8 175 11 235 3 61 7 139 8 175 l1 65 -82 1
c-93 1 -88 5 -98 -86 -3 -30 -17 -109 -30 -176 -82 -411 -239 -637 -465 -671
-30 -5 -115 -8 -188 -7 -211 3 -267 35 -292 165 -12 61 -17 3012 -5 3089 11
72 39 126 82 154 38 26 131 54 191 58 32 2 32 2 33 58 0 30 1 70 2 88 1 19 -2
37 -8 40 -17 11 -935 8 -936 -3z"/>
<path d="M9342 10070 l3 -94 40 -3 c69 -6 174 -34 208 -57 17 -12 41 -39 52
-61 20 -40 20 -60 20 -1640 0 -1546 -1 -1602 -19 -1642 -31 -69 -107 -107
-258 -128 l-48 -7 0 -94 0 -94 500 0 501 0 -2 94 -1 94 -52 7 c-149 20 -211
50 -246 120 l-25 50 -3 1584 c-1 1100 1 1595 9 1623 18 69 62 105 154 128 44
10 98 21 120 24 22 3 41 5 41 6 1 0 2 41 3 90 1 66 -2 90 -11 91 -7 1 -233 2
-501 3 l-488 1 3 -95z"/>
<path d="M13899 10159 c-6 -3 -9 -43 -7 -94 l3 -89 65 -13 c101 -21 145 -46
172 -101 l23 -47 0 -1588 c0 -1163 -2 -1600 -11 -1633 -6 -25 -20 -58 -31 -72
-28 -37 -134 -78 -215 -82 -5 0 -8 -43 -8 -95 l0 -95 383 2 382 3 0 89 0 90
-72 12 c-104 17 -142 39 -173 99 l-25 49 -2 1541 c-1 847 0 1547 3 1555 10 29
-4 69 219 -615 75 -231 173 -530 217 -665 129 -397 223 -682 288 -885 34 -104
79 -242 100 -305 38 -115 269 -825 296 -910 8 -25 21 -63 29 -85 l15 -40 151
2 c83 0 152 3 155 5 2 3 4 814 4 1805 l0 1800 23 44 c28 56 97 103 175 120 31
7 62 16 67 20 8 6 13 151 6 179 -1 4 -732 5 -766 1 -6 -1 -10 -37 -10 -91 0
-89 1 -91 25 -96 139 -31 197 -63 230 -129 l24 -49 0 -1400 c0 -897 -3 -1401
-9 -1403 -9 -3 -35 72 -137 392 -11 33 -51 157 -89 275 -39 118 -90 276 -114
350 -23 74 -86 270 -140 435 -53 165 -99 307 -102 315 -3 8 -7 20 -8 25 -2 6
-31 96 -65 200 -120 371 -152 471 -177 550 -13 44 -28 89 -33 100 -8 17 -121
371 -152 475 -6 19 -14 39 -19 45 -10 10 -673 15 -690 4z"/>
</g>
</svg>
